<svg id="Layer_1" data-name="Layer 1" xmlns="http://www.w3.org/2000/svg" viewBox="0 0 1280 1280"><defs><style>.cls-1{fill:#0071bc;}.cls-2{fill:#fff;}</style></defs><rect class="cls-1" x="0.5" y="0.5" width="1279" height="1279"/><path d="M1279,1V1279H1V1H1279m1-1H0V1280H1280V0Z"/><rect class="cls-1" x="455.5" y="513" width="369" height="376.81" rx="50.86"/><path class="cls-2" d="M773.64,533a30.89,30.89,0,0,1,30.86,30.86V839a30.89,30.89,0,0,1-30.86,30.86H506.36A30.89,30.89,0,0,1,475.5,839V563.86A30.89,30.89,0,0,1,506.36,533H773.64m0-40H506.36a70.85,70.85,0,0,0-70.86,70.86V839a70.85,70.85,0,0,0,70.86,70.86H773.64A70.85,70.85,0,0,0,844.5,839V563.86A70.85,70.85,0,0,0,773.64,493Z"/><rect class="cls-2" x="591.5" y="909.81" width="97" height="276.18"/><ellipse class="cls-2" cx="640" cy="1186.41" rx="48.5" ry="41.09"/><rect class="cls-1" x="522" y="591.7" width="36" height="216.03" rx="12"/><path class="cls-2" d="M546,591.7H534a12,12,0,0,0-12,12v192a12,12,0,0,0,12,12h12a12,12,0,0,0,12-12v-192a12,12,0,0,0-12-12Z"/><rect class="cls-1" x="722" y="591.7" width="36" height="216.03" rx="12"/><path class="cls-2" d="M746,591.7H734a12,12,0,0,0-12,12v192a12,12,0,0,0,12,12h12a12,12,0,0,0,12-12v-192a12,12,0,0,0-12-12Z"/><rect class="cls-1" x="622" y="560.35" width="36" height="282.96" rx="12"/><path class="cls-2" d="M646,560.35H634a12,12,0,0,0-12,12v259a12,12,0,0,0,12,12h12a12,12,0,0,0,12-12v-259a12,12,0,0,0-12-12Z"/><ellipse class="cls-1" cx="640" cy="1189.8" rx="22.5" ry="19.06"/><rect class="cls-1" x="444.74" y="103.26" width="389" height="260" transform="translate(-41.23 232.7) rotate(-20)"/><path class="cls-2" d="M771.57,57.4l82.09,225.52L506.91,409.13,424.83,183.6,771.57,57.4m12-25.64L399.19,171.65,495,434.76,879.29,294.88,783.53,31.76Z"/><path class="cls-2" d="M711.2,166a26.06,26.06,0,1,1,8.89-1.58A26.1,26.1,0,0,1,711.2,166Z"/><path class="cls-2" d="M711.19,124h0a16.07,16.07,0,0,1,15,10.54,16,16,0,0,1-9.56,20.51A16,16,0,0,1,705.72,125a15.91,15.91,0,0,1,5.47-1m0-20A36,36,0,1,0,745,127.72,35.89,35.89,0,0,0,711.19,104Z"/><path class="cls-2" d="M515.85,347.19a195.36,195.36,0,0,1,18-28.79l-2.35,3A111.49,111.49,0,0,1,551,301.57l-3,2.34a83.87,83.87,0,0,1,18.24-10.75l-3.58,1.52a69.9,69.9,0,0,1,17.45-4.83l-4,.54a64.1,64.1,0,0,1,16.49,0l-4-.53c19.64,2.71,37.1,12.91,55.85,18.66a121,121,0,0,0,61.18,2.17,123.72,123.72,0,0,0,53.87-27.39,133.54,133.54,0,0,0,19.56-21.51,131.43,131.43,0,0,0,13.49-22.42,165,165,0,0,0,10.51-28.21,169.72,169.72,0,0,0,5-30.46,66.3,66.3,0,0,0,.19-8.1,15.74,15.74,0,0,0-4.39-10.6,15.26,15.26,0,0,0-10.61-4.4c-3.88.18-7.9,1.45-10.61,4.4s-4.56,6.61-4.39,10.6a94,94,0,0,1-1.08,16.5l.53-4a147.27,147.27,0,0,1-10.08,37.07l1.52-3.59a133.76,133.76,0,0,1-17,29.3l2.34-3a115.91,115.91,0,0,1-20.72,20.86l3-2.35a109.51,109.51,0,0,1-23.74,13.85l3.58-1.52A109.24,109.24,0,0,1,689,283.33l4-.54a106.54,106.54,0,0,1-27.58,0l4,.53c-13-1.75-25.05-6.33-37.11-11.19-6.17-2.49-12.33-5-18.66-7.09a110.77,110.77,0,0,0-22.21-4.79c-14.8-1.72-29.56,1.91-42.91,8.15a97.94,97.94,0,0,0-18.65,11.92,104.68,104.68,0,0,0-13.68,12.86c-10.45,11.69-18.93,25-26.2,38.84a15.84,15.84,0,0,0-1.51,11.56,15.29,15.29,0,0,0,6.89,9c3.48,1.84,7.7,2.76,11.56,1.51,3.62-1.17,7.15-3.42,9-6.89Z"/></svg>